<svg xmlns="http://www.w3.org/2000/svg" xmlns:xlink="http://www.w3.org/1999/xlink" width="290.432" height="195" viewBox="0 0 290.432 195">
  <defs>
    <filter id="Tracé_13230" x="0" y="0" width="290.432" height="109.646" filterUnits="userSpaceOnUse">
      <feOffset dy="3" input="SourceAlpha"/>
      <feGaussianBlur stdDeviation="3" result="blur"/>
      <feFlood flood-opacity="0.161"/>
      <feComposite operator="in" in2="blur"/>
      <feComposite in="SourceGraphic"/>
    </filter>
  </defs>
  <g id="Groupe_3157" data-name="Groupe 3157" transform="translate(-612 -275)">
    <g id="Groupe_3152" data-name="Groupe 3152" transform="translate(621 281)">
      <rect id="Rectangle_3553" data-name="Rectangle 3553" width="272" height="189" rx="33" fill="#f0f0f0"/>
      <path id="Tracé_13230-2" data-name="Tracé 13230" d="M26.2,0H246.236a26.2,26.2,0,0,1,26.2,26.2c0,25.709-133.184,65.451-133.184,65.451S0,56.866,0,26.2A26.2,26.2,0,0,1,26.2,0Z" transform="translate(0 0)" fill="none"/>
    </g>
    <g transform="matrix(1, 0, 0, 1, 612, 275)" filter="url(#Tracé_13230)">
      <path id="Tracé_13230-3" data-name="Tracé 13230" d="M26.2,0H246.236a26.2,26.2,0,0,1,26.2,26.2c0,25.709-133.184,65.451-133.184,65.451S0,56.866,0,26.2A26.2,26.2,0,0,1,26.2,0Z" transform="translate(9 6)" fill="#fff"/>
    </g>
  </g>
</svg>
