<svg xmlns="http://www.w3.org/2000/svg" width="396.743" height="59.773" viewBox="0 0 396.743 59.773">
  <g id="Groupe_3185" data-name="Groupe 3185" transform="translate(-767 -291)">
    <g id="Groupe_3183" data-name="Groupe 3183" transform="translate(950.458 291)">
      <path id="path343719" d="M1343.541,219.8a18.968,18.968,0,0,0-14.905-6.844,20.744,20.744,0,0,0-10.646,2.738,18.981,18.981,0,0,0-7.377,7.529,22.316,22.316,0,0,0-2.586,10.875,21.459,21.459,0,0,0,2.662,10.8,19.882,19.882,0,0,0,7.529,7.529,21.307,21.307,0,0,0,10.8,2.738,19.209,19.209,0,0,0,13.688-5.1,2.837,2.837,0,0,0,.912-2.053,3.786,3.786,0,0,0-1.445-2.738,3.282,3.282,0,0,0-1.977-.684,4.816,4.816,0,0,0-2.814,1.065,12.415,12.415,0,0,1-8.365,2.662,13.608,13.608,0,0,1-7.072-1.825,12.68,12.68,0,0,1-4.791-5.019,15.51,15.51,0,0,1-1.673-7.377c0-4.259,1.217-7.757,3.65-10.342a12.439,12.439,0,0,1,9.506-3.954,13.515,13.515,0,0,1,5.1.989,11.772,11.772,0,0,1,4.183,2.966,3.679,3.679,0,0,0,2.966,1.369,2.959,2.959,0,0,0,1.749-.532,3.421,3.421,0,0,0,1.673-2.814,3.2,3.2,0,0,0-.76-1.977Z" transform="translate(-1308.027 -195.462)" fill="#f6f8f7"/>
      <path id="path343721" d="M1458.309,188.748a19.437,19.437,0,0,0-9.43-2.281,18.419,18.419,0,0,0-7.148,1.369,16.831,16.831,0,0,0-5.78,3.726V172.93a3.982,3.982,0,0,0-6.692-2.814,3.724,3.724,0,0,0-1.065,2.814v51.712a3.982,3.982,0,0,0,6.692,2.814,4.036,4.036,0,0,0,1.065-2.814V203.2a8.742,8.742,0,0,1,1.445-4.943,10.953,10.953,0,0,1,4.107-3.5,13.5,13.5,0,0,1,5.855-1.293,12.018,12.018,0,0,1,8.745,3.194c2.205,2.129,3.346,5.171,3.346,9.278v18.708a3.659,3.659,0,0,0,3.878,3.878,3.665,3.665,0,0,0,2.738-1.065,3.784,3.784,0,0,0,1.141-2.814V205.934a22.28,22.28,0,0,0-2.357-10.494,16.793,16.793,0,0,0-6.54-6.692Z" transform="translate(-1380.319 -169.052)" fill="#f6f8f7"/>
      <path id="path343723" d="M1595.233,234.094a21.484,21.484,0,0,0-2.814-10.723,20.081,20.081,0,0,0-7.529-7.6,20.922,20.922,0,0,0-10.571-2.814,21.278,21.278,0,0,0-10.723,2.814,20.081,20.081,0,0,0-7.529,7.6,21.224,21.224,0,0,0-2.738,10.723,23.063,23.063,0,0,0,2.51,10.8,19.091,19.091,0,0,0,7,7.529,18.279,18.279,0,0,0,9.962,2.814h18.784a3.756,3.756,0,0,0,2.586-1.065,3.5,3.5,0,0,0,1.065-2.586V234.094Zm-32.7,7.3a14.413,14.413,0,0,1-1.749-7.3,14.8,14.8,0,0,1,1.749-7.3,13.629,13.629,0,0,1,4.867-5.1,13.407,13.407,0,0,1,13.764,0,13.629,13.629,0,0,1,4.867,5.1,15.678,15.678,0,0,1,1.749,7.3,15.236,15.236,0,0,1-1.749,7.3,13.629,13.629,0,0,1-4.867,5.1,13.888,13.888,0,0,1-13.764,0A13.629,13.629,0,0,1,1562.533,241.394Z" transform="translate(-1455.599 -195.462)" fill="#f6f8f7"/>
      <path id="path343725" d="M1690.639,214.781a3.724,3.724,0,0,0-1.065,2.814v33.841a3.982,3.982,0,0,0,6.692,2.814,4.036,4.036,0,0,0,1.065-2.814V217.595a3.982,3.982,0,0,0-6.692-2.814Z" transform="translate(-1537.562 -195.921)" fill="#f6f8f7"/>
      <path id="path343727" d="M1782.1,221.735a16.794,16.794,0,0,0-6.54-6.692,19.85,19.85,0,0,0-8.745-2.205.766.766,0,0,1-.228-.076H1749.1a3.5,3.5,0,0,0-2.585,1.065,3.446,3.446,0,0,0-1.065,2.586v34.525a3.982,3.982,0,0,0,6.692,2.814,4.037,4.037,0,0,0,1.065-2.814V229.492a8.742,8.742,0,0,1,1.445-4.943,10.956,10.956,0,0,1,4.107-3.5,13.5,13.5,0,0,1,5.856-1.293,12.018,12.018,0,0,1,8.745,3.194c2.205,2.129,3.346,5.247,3.346,9.278v18.707a3.659,3.659,0,0,0,3.878,3.878,3.665,3.665,0,0,0,2.738-1.065,3.783,3.783,0,0,0,1.141-2.814V232.23a22.28,22.28,0,0,0-2.357-10.494Z" transform="translate(-1571.176 -195.347)" fill="#f6f8f7"/>
    </g>
    <g id="Groupe_3184" data-name="Groupe 3184" transform="translate(767 291)">
      <path id="path343711" d="M912.119,169.964a3.578,3.578,0,0,0-2.586-.913,4.488,4.488,0,0,0-2.205.532,2.94,2.94,0,0,0-1.369,1.825L888.545,212.4a2.056,2.056,0,0,1-2.053,1.369,2.09,2.09,0,0,1-2.129-1.369l-17.034-40.989a3.74,3.74,0,0,0-3.65-2.357,3.646,3.646,0,0,0-2.662.913,3.151,3.151,0,0,0-.913,2.357,6.584,6.584,0,0,0,.608,2.662l22.282,50.951a3.709,3.709,0,0,0,3.574,2.51,3.643,3.643,0,0,0,3.574-2.51l22.51-51.636a4.954,4.954,0,0,0,.456-1.977A3.477,3.477,0,0,0,912.119,169.964Z" transform="translate(-860.103 -169.052)" fill="#f6f8f7"/>
      <path id="path343713" d="M1019.5,215.69a22.665,22.665,0,0,0-21.6,0,18.983,18.983,0,0,0-7.453,7.453,21.638,21.638,0,0,0-2.662,10.951,21.352,21.352,0,0,0,2.662,10.875A19.172,19.172,0,0,0,997.9,252.5a23.391,23.391,0,0,0,21.673,0,19.688,19.688,0,0,0,7.453-7.529,22.146,22.146,0,0,0,2.661-10.875,21.676,21.676,0,0,0-2.738-10.951A19.49,19.49,0,0,0,1019.5,215.69Zm-17.719,5.932a13.525,13.525,0,0,1,7-1.825,13.251,13.251,0,0,1,6.92,1.825,12.881,12.881,0,0,1,4.791,5.1,15.762,15.762,0,0,1,1.749,7.377,15.541,15.541,0,0,1-1.749,7.377,12.68,12.68,0,0,1-4.791,5.019,13.251,13.251,0,0,1-6.92,1.825,13.525,13.525,0,0,1-7-1.825,12.68,12.68,0,0,1-4.791-5.019,14.7,14.7,0,0,1-1.749-7.377,14.9,14.9,0,0,1,1.749-7.377A12.881,12.881,0,0,1,1001.782,221.622Z" transform="translate(-936.918 -195.462)" fill="#f6f8f7"/>
      <path id="path343715" d="M1126.514,195.257v25.324a15.287,15.287,0,0,0,1.749,7.529,13.012,13.012,0,0,0,4.791,5.323,12.552,12.552,0,0,0,6.844,1.9h1.369a4.519,4.519,0,0,0,3.194-1.065,3.39,3.39,0,0,0,1.293-2.738,4.3,4.3,0,0,0-.989-2.738,2.961,2.961,0,0,0-2.281-1.065H1139.9a4.976,4.976,0,0,1-4.107-2.053,7.621,7.621,0,0,1-1.673-5.1V201.8h6.464a3.7,3.7,0,0,0,2.586-.913,3.161,3.161,0,0,0,.989-2.281,3.382,3.382,0,0,0-.989-2.433,3.7,3.7,0,0,0-2.586-.913h-6.464V184.306a3.647,3.647,0,0,0-3.8-3.8,3.724,3.724,0,0,0-2.738,1.065,3.665,3.665,0,0,0-1.065,2.738Z" transform="translate(-1020.373 -175.941)" fill="#f6f8f7"/>
      <path id="path343717" d="M1231.684,235.843a3.383,3.383,0,0,0,.989-2.434,24.056,24.056,0,0,0-2.281-10.647,17.678,17.678,0,0,0-6.54-7.224,19.792,19.792,0,0,0-10.114-2.586,20.745,20.745,0,0,0-10.646,2.738,19.3,19.3,0,0,0-7.3,7.529,22.316,22.316,0,0,0-2.586,10.875,21.391,21.391,0,0,0,2.738,10.875,19.459,19.459,0,0,0,7.757,7.529,22.506,22.506,0,0,0,11.179,2.662,21.782,21.782,0,0,0,7.3-1.293,20.707,20.707,0,0,0,6.464-3.346,2.888,2.888,0,0,0,1.217-2.281,3.4,3.4,0,0,0-1.369-2.586,3.736,3.736,0,0,0-2.281-.76,3.988,3.988,0,0,0-2.51.837,12.958,12.958,0,0,1-4.107,2.053,13.438,13.438,0,0,1-4.715.837,14.839,14.839,0,0,1-9.81-3.27,13.064,13.064,0,0,1-4.791-8.593h28.9a3.643,3.643,0,0,0,2.51-.913Zm-27-13.308a13.411,13.411,0,0,1,9.05-3.042,11.454,11.454,0,0,1,8.137,3.042,13.836,13.836,0,0,1,3.8,8.137h-25.323A13.973,13.973,0,0,1,1204.687,222.535Z" transform="translate(-1060.493 -195.462)" fill="#f6f8f7"/>
    </g>
  </g>
</svg>
